<?xml version="1.0" encoding="utf-8"?>
<!-- Generator: Adobe Illustrator 26.1.0, SVG Export Plug-In . SVG Version: 6.00 Build 0)  -->
<svg version="1.1" id="Layer_1" xmlns="http://www.w3.org/2000/svg" xmlns:xlink="http://www.w3.org/1999/xlink" x="0px" y="0px"
	 viewBox="0 0 931.2 609.6" style="enable-background:new 0 0 931.2 609.6;" xml:space="preserve">
<style type="text/css">
	.st0{fill:#C660CE;}
	.st1{fill:#FBAAE5;}
</style>
<g>
	<path class="st0" d="M0,63.1v6.2c0.9,0.2,1.7,0.4,2.6,0.6C1.7,67.6,0.9,65.4,0,63.1z"/>
	<path class="st1" d="M102,78.7C93.3,52.5,84.6,26.2,75.9,0H0v63.1c0.9,2.3,1.7,4.5,2.6,6.8C36.2,77,69.4,79.6,102,78.7z"/>
	<path class="st0" d="M198.5,66.4C192.3,44.3,186.2,22.1,180,0H75.9c8.7,26.2,17.4,52.5,26.1,78.7C134.7,77.9,166.8,73.4,198.5,66.4
		z"/>
	<path class="st1" d="M292,38.6c-2.9-12.9-5.7-25.7-8.6-38.6H180c6.2,22.1,12.3,44.3,18.5,66.4C230.2,59.4,261.3,49.9,292,38.6z"/>
	<path class="st0" d="M382.6,0.9c0-0.3-0.1-0.6-0.1-0.9h-99c2.9,12.9,5.7,25.7,8.6,38.6C322.7,27.4,352.9,14.5,382.6,0.9z"/>
	<path class="st1" d="M384.5,0h-2.1c0,0.3,0.1,0.6,0.1,0.9C383.2,0.6,383.9,0.3,384.5,0z"/>
	<path class="st1" d="M528,0h-53.2c1,8.9,2,17.9,3,26.8C494.6,17.7,511.4,8.7,528,0z"/>
	<path class="st0" d="M394.2,70.9c28.3-14.4,56.1-29.4,83.5-44.1c-1-8.9-2-17.9-3-26.8h-90.2c-0.6,0.3-1.3,0.6-1.9,0.9
		C386.5,24.2,390.3,47.6,394.2,70.9z"/>
	<path class="st1" d="M394.2,70.9c-3.9-23.3-7.7-46.7-11.6-70c-29.7,13.6-59.9,26.5-90.6,37.7c5.4,24.2,10.7,48.4,16.1,72.5
		C337.2,99,365.9,85.3,394.2,70.9z"/>
	<path class="st0" d="M308.1,111.2C302.8,87,297.4,62.8,292,38.6c-30.7,11.2-61.9,20.8-93.5,27.8c7,25.2,14,50.4,21,75.6
		C249.5,133.9,279,123.3,308.1,111.2z"/>
	<path class="st1" d="M219.5,142.1c-7-25.2-14-50.4-21-75.6c-31.7,7-63.8,11.4-96.5,12.3c8.8,26.5,17.6,53.1,26.3,79.6
		C159.2,156,189.5,150.2,219.5,142.1z"/>
	<path class="st0" d="M128.4,158.3c-8.8-26.5-17.6-53.1-26.3-79.6C69.4,79.6,36.2,77,2.6,69.9c10.7,28.2,21.4,56.4,32.1,84.7
		C66.3,159.7,97.6,160.7,128.4,158.3z"/>
	<path class="st1" d="M2.6,69.9c-0.9-0.2-1.7-0.4-2.6-0.6v77.8c11.6,3.1,23.2,5.5,34.7,7.4C24,126.3,13.3,98.1,2.6,69.9z"/>
	<path class="st0" d="M34.7,154.5c-11.5-1.9-23.1-4.3-34.7-7.4v77.7c22.5,7.2,44.7,11.9,66.8,14.4C56.1,211,45.4,182.8,34.7,154.5z"
		/>
	<path class="st1" d="M154.7,237.9c-8.8-26.5-17.6-53.1-26.3-79.6c-30.8,2.4-62,1.4-93.7-3.8c10.7,28.2,21.4,56.4,32.1,84.7
		C96.4,242.5,125.7,241.8,154.7,237.9z"/>
	<path class="st0" d="M219.5,142.1c-30,8.2-60.3,13.9-91.1,16.3c8.8,26.5,17.6,53.1,26.3,79.6c29-3.9,57.6-10.9,85.8-20.2
		C233.5,192.5,226.5,167.3,219.5,142.1z"/>
	<path class="st1" d="M324.2,183.7c-5.4-24.2-10.7-48.4-16.1-72.5c-29.1,12.2-58.7,22.8-88.6,30.9c7,25.2,14,50.4,21,75.6
		C268.8,208.4,296.7,196.8,324.2,183.7z"/>
	<path class="st0" d="M324.2,183.7c27.5-13.1,54.7-27.6,81.6-42.7c-3.9-23.3-7.7-46.7-11.6-70c-28.3,14.4-57,28.1-86.1,40.2
		C313.5,135.3,318.9,159.5,324.2,183.7z"/>
	<path class="st1" d="M485.3,94.7c-2.5-22.6-5-45.3-7.5-67.9c-27.4,14.8-55.3,29.8-83.5,44.1c3.9,23.3,7.7,46.7,11.6,70
		C432.7,125.9,459.2,110.2,485.3,94.7z"/>
	<path class="st0" d="M485.3,94.7c26.1-15.5,51.9-30.7,77.4-44.8c-1-16.6-2-33.3-3-49.9H528c-16.6,8.7-33.3,17.7-50.2,26.8
		C480.3,49.4,482.8,72.1,485.3,94.7z"/>
	<path class="st1" d="M637.9,11.8c0-3.9-0.1-7.9-0.1-11.8h-78.1c1,16.6,2,33.3,3,49.9C588.1,35.8,613.2,22.9,637.9,11.8z"/>
	<path class="st0" d="M666.4,0h-28.6c0,3.9,0.1,7.9,0.1,11.8C647.5,7.6,656.9,3.6,666.4,0z"/>
	<path class="st1" d="M922.6,0h-46.3c14,7.5,27.8,16.8,41.5,28.2C919.4,18.8,921,9.4,922.6,0z"/>
	<path class="st0" d="M931.2,40.1V0h-8.6c-1.6,9.4-3.2,18.8-4.8,28.2C922.3,32,926.8,35.9,931.2,40.1z"/>
	<path class="st1" d="M909.8,75.5c7.2,5.4,14.3,11.4,21.4,17.9V40.1c-4.4-4.2-8.9-8.2-13.4-11.9C915.2,44,912.5,59.8,909.8,75.5z"/>
	<path class="st0" d="M909.8,75.5c2.7-15.8,5.3-31.5,8-47.3C904.1,16.8,890.3,7.5,876.3,0h-26.7c-1.7,13.8-3.4,27.7-5.1,41.5
		C866.6,48.3,888.4,59.3,909.8,75.5z"/>
	<path class="st1" d="M844.6,41.5c1.7-13.8,3.4-27.7,5.1-41.5h-69.4c-0.9,11.1-1.7,22.3-2.6,33.4C800.2,32.3,822.5,34.8,844.6,41.5z
		"/>
	<path class="st0" d="M777.6,33.4c0.9-11.1,1.7-22.3,2.6-33.4h-69.7c-0.5,15.4-1.1,30.9-1.6,46.3C732.1,39,755,34.4,777.6,33.4z"/>
	<path class="st1" d="M638.6,75.3c23.7-11.8,47.2-21.8,70.3-29.1c0.5-15.4,1.1-30.9,1.6-46.3h-44.2c-9.4,3.6-18.9,7.6-28.5,11.8
		C638.1,33,638.4,54.2,638.6,75.3z"/>
	<path class="st0" d="M638.6,75.3c-0.2-21.2-0.5-42.3-0.7-63.5c-24.7,11-49.8,24-75.3,38.1c1.3,21.9,2.6,43.9,3.9,65.8
		C590.9,100.9,614.9,87.2,638.6,75.3z"/>
	<path class="st1" d="M566.6,115.7c-1.3-21.9-2.6-43.9-3.9-65.8c-25.4,14.1-51.2,29.3-77.4,44.8c2.5,22.6,5,45.3,7.5,67.9
		C517.7,146.4,542.3,130.5,566.6,115.7z"/>
	<path class="st0" d="M417.4,211c25.4-15.9,50.6-32.3,75.4-48.5c-2.5-22.6-5-45.3-7.5-67.9c-26.1,15.5-52.6,31.2-79.5,46.3
		C409.7,164.3,413.6,187.7,417.4,211z"/>
	<path class="st1" d="M417.4,211c-3.9-23.3-7.7-46.7-11.6-70c-26.8,15.1-54,29.6-81.6,42.7c5.4,24.2,10.7,48.4,16.1,72.5
		C366.3,242.3,392,226.9,417.4,211z"/>
	<path class="st0" d="M261.5,293.4c26.5-10.5,52.8-23.1,78.8-37.1c-5.4-24.2-10.7-48.4-16.1-72.5c-27.5,13.1-55.5,24.7-83.7,34
		C247.5,242.9,254.5,268.1,261.5,293.4z"/>
	<path class="st1" d="M240.5,217.7c-28.3,9.3-56.9,16.3-85.8,20.2c8.8,26.5,17.6,53.1,26.3,79.6c27.1-5.4,53.9-13.7,80.5-24.2
		C254.5,268.1,247.5,242.9,240.5,217.7z"/>
	<path class="st0" d="M181.1,317.5c-8.8-26.5-17.6-53.1-26.3-79.6c-29,3.9-58.3,4.6-87.9,1.3c10.7,28.2,21.4,56.4,32.1,84.7
		C126.6,325.3,153.9,322.9,181.1,317.5z"/>
	<path class="st1" d="M98.9,323.9c-10.7-28.2-21.4-56.4-32.1-84.7c-22.1-2.5-44.3-7.1-66.8-14.4v47c5,11.9,10,23.8,15,35.8
		C43.3,317.3,71.2,322.5,98.9,323.9z"/>
	<path class="st0" d="M0,271.8v30.1c5,2,10,3.9,15,5.6C10,295.6,5,283.7,0,271.8z"/>
	<path class="st1" d="M15,307.6c-5-1.7-10-3.6-15-5.6v75.7c17.9,9.2,35.6,16.1,53.3,21.1C40.5,368.3,27.8,337.9,15,307.6z"/>
	<path class="st0" d="M131,408.5c-10.7-28.2-21.4-56.4-32.1-84.7c-27.7-1.4-55.6-6.6-83.9-16.3c12.8,30.4,25.5,60.7,38.3,91.1
		C79.4,406,105.3,409.1,131,408.5z"/>
	<path class="st1" d="M207.4,397.1c-8.8-26.5-17.6-53.1-26.3-79.6c-27.1,5.4-54.5,7.7-82.2,6.4c10.7,28.2,21.4,56.4,32.1,84.7
		C156.7,408,182.1,404,207.4,397.1z"/>
	<path class="st0" d="M261.5,293.4c-26.5,10.5-53.4,18.8-80.5,24.2c8.8,26.5,17.6,53.1,26.3,79.6c25.3-6.8,50.3-16.5,75.1-28.1
		C275.5,343.8,268.5,318.6,261.5,293.4z"/>
	<path class="st1" d="M340.3,256.2c-26,14-52.2,26.6-78.8,37.1c7,25.2,14,50.4,21,75.6c24.8-11.6,49.5-25.3,73.9-40.2
		C351.1,304.6,345.7,280.4,340.3,256.2z"/>
	<path class="st0" d="M356.4,328.8c24.4-14.9,48.6-31.1,72.6-47.7c-3.9-23.3-7.7-46.7-11.6-70c-25.4,15.9-51.1,31.2-77.1,45.2
		C345.7,280.4,351.1,304.6,356.4,328.8z"/>
	<path class="st1" d="M500.4,230.5c-2.5-22.6-5-45.3-7.5-67.9c-24.9,16.2-50,32.6-75.4,48.5c3.9,23.3,7.7,46.7,11.6,70
		C453,264.4,476.8,247.3,500.4,230.5z"/>
	<path class="st0" d="M570.5,181.5c-1.3-21.9-2.6-43.9-3.9-65.8c-24.3,14.8-48.9,30.7-73.7,46.8c2.5,22.6,5,45.3,7.5,67.9
		C524,213.6,547.3,197,570.5,181.5z"/>
	<path class="st1" d="M570.5,181.5c23.1-15.5,46.1-30,68.8-42.7c-0.2-21.2-0.5-42.3-0.7-63.5c-23.7,11.8-47.7,25.6-72,40.4
		C567.9,137.7,569.2,159.6,570.5,181.5z"/>
	<path class="st0" d="M706.8,107.1c0.7-20.3,1.4-40.5,2.1-60.8c-23.2,7.3-46.6,17.2-70.3,29.1c0.2,21.2,0.5,42.3,0.7,63.5
		C662,126.2,684.5,115.3,706.8,107.1z"/>
	<path class="st1" d="M773.1,90.7c1.5-19.1,3-38.2,4.5-57.4c-22.6,1.1-45.5,5.6-68.7,12.9c-0.7,20.3-1.4,40.5-2.1,60.8
		C729.1,98.8,751.2,93.1,773.1,90.7z"/>
	<path class="st0" d="M838.1,94.4c2.1-17.6,4.3-35.3,6.4-52.9c-22-6.8-44.4-9.2-67-8.1c-1.5,19.1-3,38.2-4.5,57.4
		C795,88.4,816.7,89.4,838.1,94.4z"/>
	<path class="st1" d="M901.9,122.8c2.7-15.8,5.3-31.5,8-47.3c-21.5-16.2-43.2-27.3-65.3-34c-2.1,17.6-4.3,35.3-6.4,52.9
		C859.6,99.5,880.8,108.7,901.9,122.8z"/>
	<path class="st0" d="M901.9,122.8c9.8,6.6,19.6,14.2,29.4,23V93.4c-7.1-6.6-14.2-12.5-21.4-17.9C907.2,91.3,904.5,107,901.9,122.8z
		"/>
	<path class="st1" d="M893.9,170.1c12.5,7.3,24.9,16.2,37.3,27v-51.3c-9.7-8.8-19.5-16.4-29.4-23
		C899.2,138.6,896.5,154.3,893.9,170.1z"/>
	<path class="st0" d="M831.7,147.4c20.9,3.4,41.6,10.8,62.2,22.7c2.7-15.8,5.3-31.5,8-47.3c-21-14.1-42.3-23.3-63.7-28.4
		C836,112.1,833.8,129.7,831.7,147.4z"/>
	<path class="st1" d="M831.7,147.4c2.1-17.6,4.3-35.3,6.4-52.9c-21.5-5.1-43.1-6.1-65-3.7c-1.5,19.1-3,38.2-4.5,57.4
		C789.8,144.4,810.8,144,831.7,147.4z"/>
	<path class="st0" d="M768.6,148.1c1.5-19.1,3-38.2,4.5-57.4c-21.9,2.4-44,8.1-66.3,16.3c-0.7,20.3-1.4,40.5-2.1,60.8
		C726.2,158.6,747.5,151.7,768.6,148.1z"/>
	<path class="st1" d="M704.7,167.9c0.7-20.3,1.4-40.5,2.1-60.8c-22.3,8.3-44.8,19.1-67.5,31.8c0.2,21.2,0.5,42.3,0.7,63.5
		C661.7,188.9,683.3,177.1,704.7,167.9z"/>
	<path class="st0" d="M640,202.4c-0.2-21.2-0.5-42.3-0.7-63.5c-22.7,12.7-45.7,27.1-68.8,42.7c1.3,21.9,2.6,43.9,3.9,65.8
		C596.4,231.1,618.2,215.9,640,202.4z"/>
	<path class="st1" d="M507.9,298.3c22.3-17.5,44.4-34.8,66.4-51c-1.3-21.9-2.6-43.9-3.9-65.8c-23.1,15.5-46.5,32.1-70.1,48.9
		C502.9,253.1,505.4,275.7,507.9,298.3z"/>
	<path class="st0" d="M507.9,298.3c-2.5-22.6-5-45.3-7.5-67.9c-23.6,16.8-47.4,34-71.3,50.6c3.9,23.3,7.7,46.7,11.6,70
		C463.2,333.7,485.7,315.9,507.9,298.3z"/>
	<path class="st1" d="M429,281.1c-24,16.6-48.2,32.8-72.6,47.7c5.4,24.2,10.7,48.4,16.1,72.5c22.8-15.8,45.6-32.8,68.1-50.2
		C436.8,327.8,432.9,304.4,429,281.1z"/>
	<path class="st0" d="M282.6,369c7,25.2,14,50.4,21,75.6c23.1-12.8,46.1-27.5,69-43.3c-5.4-24.2-10.7-48.4-16.1-72.5
		C332,343.7,307.4,357.4,282.6,369z"/>
	<path class="st1" d="M303.6,444.6c-7-25.2-14-50.4-21-75.6c-24.8,11.6-49.9,21.3-75.1,28.1c8.8,26.5,17.6,53.1,26.3,79.6
		C257.2,468.4,280.4,457.4,303.6,444.6z"/>
	<path class="st0" d="M207.4,397.1c-25.3,6.8-50.7,10.9-76.4,11.4c10.7,28.2,21.4,56.4,32.1,84.7c23.7-2.4,47.2-8.2,70.7-16.5
		C225,450.2,216.2,423.6,207.4,397.1z"/>
	<path class="st1" d="M163.1,493.2c-10.7-28.2-21.4-56.4-32.1-84.7c-25.7,0.5-51.6-2.5-77.7-9.9c12.8,30.4,25.5,60.7,38.3,91.1
		C115.6,494.7,139.4,495.6,163.1,493.2z"/>
	<path class="st0" d="M91.6,489.8c-12.8-30.4-25.5-60.7-38.3-91.1c-17.7-5-35.4-11.9-53.3-21.1v42c6.4,14.2,12.8,28.4,19.2,42.5
		C43.5,475.9,67.6,484.9,91.6,489.8z"/>
	<path class="st1" d="M0,419.7v30.7c6.4,4.3,12.8,8.3,19.2,11.9C12.8,448,6.4,433.8,0,419.7z"/>
	<path class="st0" d="M19.2,462.2c-6.4-3.6-12.8-7.6-19.2-11.9v66.8c21.4,19.4,42.8,33.9,64.1,44.3
		C49.2,528.3,34.2,495.3,19.2,462.2z"/>
	<path class="st1" d="M91.6,489.8c-24-4.9-48.1-13.9-72.3-27.6c15,33.1,29.9,66.1,44.9,99.2c22,10.7,43.9,17,65.7,19.5
		C117.1,550.6,104.3,520.2,91.6,489.8z"/>
	<path class="st0" d="M195.2,577.9c-10.7-28.2-21.4-56.4-32.1-84.7c-23.7,2.4-47.5,1.5-71.5-3.4c12.8,30.4,25.5,60.7,38.3,91.1
		C151.7,583.4,173.5,582.2,195.2,577.9z"/>
	<path class="st1" d="M163.1,493.2c10.7,28.2,21.4,56.4,32.1,84.7c21.7-4.3,43.3-11.8,64.9-21.6c-8.8-26.5-17.6-53.1-26.3-79.6
		C210.3,485,186.8,490.8,163.1,493.2z"/>
	<path class="st0" d="M233.8,476.7c8.8,26.5,17.6,53.1,26.3,79.6c21.6-9.8,43.1-22.1,64.5-36c-7-25.2-14-50.4-21-75.6
		C280.4,457.4,257.2,468.4,233.8,476.7z"/>
	<path class="st1" d="M372.5,401.3c-22.8,15.8-45.8,30.5-69,43.3c7,25.2,14,50.4,21,75.6c21.4-14,42.8-29.7,64.1-46.4
		C383.3,449.7,377.9,425.5,372.5,401.3z"/>
	<path class="st0" d="M372.5,401.3c5.4,24.2,10.7,48.4,16.1,72.5c21.3-16.7,42.5-34.5,63.6-52.7c-3.9-23.3-7.7-46.7-11.6-70
		C418.1,368.5,395.4,385.5,372.5,401.3z"/>
	<path class="st1" d="M440.7,351.1c3.9,23.3,7.7,46.7,11.6,70c21.1-18.2,42.2-36.7,63.2-54.9c-2.5-22.6-5-45.3-7.5-67.9
		C485.7,315.9,463.2,333.7,440.7,351.1z"/>
	<path class="st0" d="M574.4,247.3c-22,16.2-44.1,33.5-66.4,51c2.5,22.6,5,45.3,7.5,67.9c21-18.2,41.9-36.2,62.8-53.1
		C577,291.2,575.7,269.2,574.4,247.3z"/>
	<path class="st1" d="M640.7,265.9c-0.2-21.2-0.5-42.3-0.7-63.5c-21.7,13.5-43.6,28.7-65.6,44.9c1.3,21.9,2.6,43.9,3.9,65.8
		C599.1,296.2,619.9,280.2,640.7,265.9z"/>
	<path class="st0" d="M702.6,228.6c0.7-20.3,1.4-40.5,2.1-60.8c-21.4,9.3-43,21-64.7,34.5c0.2,21.2,0.5,42.3,0.7,63.5
		C661.4,251.6,682,238.9,702.6,228.6z"/>
	<path class="st1" d="M764.1,205.4c1.5-19.1,3-38.2,4.5-57.4c-21.2,3.7-42.5,10.5-63.9,19.8c-0.7,20.3-1.4,40.5-2.1,60.8
		C723.2,218.3,743.7,210.4,764.1,205.4z"/>
	<path class="st0" d="M768.6,148.1c-1.5,19.1-3,38.2-4.5,57.4c20.4-4.9,40.8-6.9,61.1-5.1c2.1-17.6,4.3-35.3,6.4-52.9
		C810.8,144,789.8,144.4,768.6,148.1z"/>
	<path class="st1" d="M825.2,200.3c20.3,1.8,40.5,7.2,60.7,17.1c2.7-15.8,5.3-31.5,8-47.3c-20.6-12-41.3-19.3-62.2-22.7
		C829.5,165,827.4,182.7,825.2,200.3z"/>
	<path class="st0" d="M885.9,217.4c15.1,7.4,30.3,17.3,45.3,29.9v-50.1c-12.4-10.8-24.8-19.8-37.3-27
		C891.2,185.9,888.6,201.6,885.9,217.4z"/>
	<path class="st1" d="M877.9,264.7c17.8,7,35.5,17.3,53.3,31.4v-48.8c-15.1-12.6-30.2-22.5-45.3-29.9
		C883.2,233.2,880.6,248.9,877.9,264.7z"/>
	<path class="st0" d="M818.8,253.3c19.7,0.1,39.4,3.7,59.1,11.4c2.7-15.8,5.3-31.5,8-47.3c-20.2-9.8-40.4-15.3-60.7-17.1
		C823.1,218,820.9,235.6,818.8,253.3z"/>
	<path class="st1" d="M764.1,205.4c-1.5,19.1-3,38.2-4.5,57.4c19.7-6.2,39.4-9.6,59.1-9.5c2.1-17.6,4.3-35.3,6.4-52.9
		C804.9,198.6,784.6,200.5,764.1,205.4z"/>
	<path class="st0" d="M700.5,289.4c19.7-11.3,39.4-20.4,59.1-26.6c1.5-19.1,3-38.2,4.5-57.4c-20.4,4.9-40.9,12.9-61.5,23.2
		C701.9,248.9,701.2,269.2,700.5,289.4z"/>
	<path class="st1" d="M640.7,265.9c0.2,21.2,0.5,42.3,0.7,63.5c19.7-15.1,39.4-28.7,59.1-40c0.7-20.3,1.4-40.5,2.1-60.8
		C682,238.9,661.4,251.6,640.7,265.9z"/>
	<path class="st0" d="M640.7,265.9c-20.7,14.3-41.5,30.3-62.4,47.2c1.3,21.9,2.6,43.9,3.9,65.8c19.7-17.7,39.4-34.4,59.1-49.5
		C641.1,308.2,640.9,287.1,640.7,265.9z"/>
	<path class="st1" d="M515.5,366.2c2.5,22.6,5,45.3,7.5,67.9c19.7-18.9,39.4-37.5,59.1-55.2c-1.3-21.9-2.6-43.9-3.9-65.8
		C557.4,330.1,536.5,348,515.5,366.2z"/>
	<path class="st0" d="M515.5,366.2c-21,18.2-42.1,36.8-63.2,54.9c3.9,23.3,7.7,46.7,11.6,70c19.7-18.9,39.4-38.2,59.1-57.1
		C520.5,411.5,518,388.9,515.5,366.2z"/>
	<path class="st1" d="M388.6,473.9c5.4,24.2,10.7,48.4,16.1,72.5c19.7-17.7,39.4-36.3,59.1-55.2c-3.9-23.3-7.7-46.7-11.6-70
		C431.1,439.3,409.9,457.1,388.6,473.9z"/>
	<path class="st0" d="M324.6,520.3c7,25.2,14,50.4,21,75.6c19.7-15.1,39.4-31.8,59.1-49.5c-5.4-24.2-10.7-48.4-16.1-72.5
		C367.4,490.6,346,506.3,324.6,520.3z"/>
	<path class="st1" d="M324.6,520.3c-21.4,14-42.9,26.2-64.5,36c5.9,17.8,11.8,35.6,17.7,53.3h49.3c6.2-4.4,12.3-9,18.5-13.7
		C338.6,570.7,331.6,545.5,324.6,520.3z"/>
	<path class="st0" d="M195.2,577.9c4,10.6,8,21.2,12,31.8h70.5c-5.9-17.8-11.8-35.6-17.7-53.3C238.5,566.1,216.9,573.5,195.2,577.9z
		"/>
	<path class="st1" d="M129.9,580.9c4,9.6,8,19.1,12.1,28.7h65.3c-4-10.6-8-21.2-12-31.8C173.5,582.2,151.7,583.4,129.9,580.9z"/>
	<path class="st0" d="M64.1,561.4c7.3,16.1,14.5,32.1,21.8,48.2h56c-4-9.6-8-19.1-12.1-28.7C108,578.4,86.1,572.1,64.1,561.4z"/>
	<path class="st1" d="M85.9,609.6c-7.3-16.1-14.5-32.1-21.8-48.2C42.8,551,21.4,536.5,0,517.1v2.4c14.3,30,28.5,60.1,42.8,90.1H85.9
		z"/>
	<path class="st0" d="M33.5,609.6h9.3c-14.3-30-28.5-60.1-42.8-90.1V572C11.2,586.2,22.4,598.7,33.5,609.6z"/>
	<path class="st0" d="M4.6,609.6h10.5C10.1,599.3,5,589,0,578.7V601C1.5,603.9,3,606.8,4.6,609.6z"/>
	<path class="st1" d="M33.5,609.6C22.4,598.7,11.2,586.2,0,572v6.8c5,10.3,10.1,20.6,15.1,30.9H33.5z"/>
	<path class="st0" d="M327.1,609.6h22.3c-1.3-4.6-2.5-9.1-3.8-13.7C339.4,600.6,333.3,605.2,327.1,609.6z"/>
	<path class="st1" d="M345.6,595.9c1.3,4.6,2.5,9.1,3.8,13.7h69.4c-4.7-21.1-9.4-42.1-14-63.2C385,564.1,365.3,580.8,345.6,595.9z"
		/>
	<path class="st0" d="M463.9,491.2c-19.7,18.9-39.4,37.5-59.1,55.2c4.7,21.1,9.4,42.1,14,63.2h11.1c15.2-15.7,30.4-31.9,45.6-48.4
		C471.6,537.9,467.8,514.6,463.9,491.2z"/>
	<path class="st1" d="M463.9,491.2c3.9,23.3,7.7,46.7,11.6,70c18.3-19.7,36.7-39.6,55.1-59.3c-2.5-22.6-5-45.3-7.5-67.9
		C503.3,453,483.6,472.3,463.9,491.2z"/>
	<path class="st0" d="M582.2,378.9c-19.7,17.7-39.4,36.3-59.1,55.2c2.5,22.6,5,45.3,7.5,67.9c18.4-19.6,36.9-38.9,55.5-57.3
		C584.8,422.8,583.5,400.8,582.2,378.9z"/>
	<path class="st1" d="M582.2,378.9c1.3,21.9,2.6,43.9,3.9,65.8c18.6-18.4,37.2-35.8,55.9-51.8c-0.2-21.2-0.5-42.3-0.7-63.5
		C621.6,344.5,601.9,361.2,582.2,378.9z"/>
	<path class="st0" d="M700.5,289.4c-19.7,11.3-39.4,24.9-59.1,40c0.2,21.2,0.5,42.3,0.7,63.5c18.7-15.9,37.5-30.4,56.3-42.7
		C699.1,330,699.8,309.7,700.5,289.4z"/>
	<path class="st1" d="M698.4,350.2c18.9-12.3,37.8-22.6,56.8-30.1c1.5-19.1,3-38.2,4.5-57.4c-19.7,6.2-39.4,15.3-59.1,26.6
		C699.8,309.7,699.1,330,698.4,350.2z"/>
	<path class="st0" d="M755.1,320.1c19-7.5,38.1-12.4,57.2-13.9c2.1-17.6,4.3-35.3,6.4-52.9c-19.7-0.1-39.4,3.3-59.1,9.5
		C758.1,281.9,756.6,301,755.1,320.1z"/>
	<path class="st1" d="M812.3,306.2c19.1-1.6,38.3,0.2,57.6,5.8c2.7-15.8,5.3-31.5,8-47.3c-19.7-7.7-39.4-11.3-59.1-11.4
		C816.6,270.9,814.5,288.6,812.3,306.2z"/>
	<path class="st0" d="M869.9,312c19.3,5.6,38.6,15.1,58,29c1.1-4.8,2.2-9.5,3.2-14.3v-30.6c-17.8-14.1-35.5-24.4-53.3-31.4
		C875.3,280.5,872.6,296.2,869.9,312z"/>
	<path class="st1" d="M931.2,343.4v-16.7c-1.1,4.8-2.2,9.5-3.2,14.3C929.1,341.8,930.1,342.6,931.2,343.4z"/>
	<path class="st0" d="M918.9,381.2c4.1,2.4,8.2,5,12.3,7.9v-45.6c-1.1-0.8-2.2-1.6-3.2-2.4C925,354.4,921.9,367.8,918.9,381.2z"/>
	<path class="st1" d="M918.9,381.2c3-13.4,6.1-26.8,9.1-40.1c-19.4-13.9-38.8-23.4-58-29c-2.7,15.8-5.3,31.5-8,47.3
		C880.8,362.8,899.8,369.9,918.9,381.2z"/>
	<path class="st0" d="M812.3,306.2c-2.1,17.6-4.3,35.3-6.4,52.9c18.6-3.2,37.2-3.4,56.1,0.1c2.7-15.8,5.3-31.5,8-47.3
		C850.7,306.4,831.5,304.7,812.3,306.2z"/>
	<path class="st1" d="M750.6,377.5c18.3-8.8,36.7-15.1,55.2-18.3c2.1-17.6,4.3-35.3,6.4-52.9c-19.1,1.6-38.2,6.4-57.2,13.9
		C753.6,339.3,752.1,358.4,750.6,377.5z"/>
	<path class="st0" d="M755.1,320.1c-19,7.5-37.9,17.8-56.8,30.1c-0.7,20.3-1.4,40.5-2.1,60.8c18-13.3,36.1-24.7,54.4-33.5
		C752.1,358.4,753.6,339.3,755.1,320.1z"/>
	<path class="st1" d="M642,392.9c0.2,21.2,0.5,42.3,0.7,63.5c17.7-16.8,35.6-32.1,53.5-45.4c0.7-20.3,1.4-40.5,2.1-60.8
		C679.5,362.6,660.7,377,642,392.9z"/>
	<path class="st0" d="M642,392.9c-18.7,15.9-37.4,33.4-55.9,51.8c1.3,21.9,2.6,43.9,3.9,65.8c17.4-19.1,35-37.3,52.7-54
		C642.5,435.3,642.2,414.1,642,392.9z"/>
	<path class="st1" d="M530.6,502c2.5,22.6,5,45.3,7.5,67.9c17.1-20.3,34.4-40.3,51.9-59.4c-1.3-21.9-2.6-43.9-3.9-65.8
		C567.5,463.1,549,482.4,530.6,502z"/>
	<path class="st0" d="M530.6,502c-18.4,19.6-36.8,39.6-55.1,59.3c2.7,16.1,5.3,32.2,8,48.4H505c11-13.3,22-26.6,33.1-39.7
		C535.6,547.2,533.1,524.6,530.6,502z"/>
	<path class="st1" d="M429.9,609.6h53.6c-2.7-16.1-5.3-32.2-8-48.4C460.3,577.7,445.1,593.9,429.9,609.6z"/>
	<path class="st1" d="M0,601.1c1.4,2.8,2.8,5.7,4.2,8.5h0.4c-1.5-2.8-3-5.7-4.6-8.6V601.1z"/>
	<path class="st1" d="M505,609.6h37.5c-1.5-13.2-2.9-26.5-4.4-39.7C527,583,516,596.3,505,609.6z"/>
	<path class="st0" d="M590,510.5c-17.4,19.1-34.7,39.1-51.9,59.4c1.5,13.2,2.9,26.5,4.4,39.7h24.7c8.8-11.3,17.7-22.5,26.7-33.3
		C592.6,554.4,591.3,532.4,590,510.5z"/>
	<path class="st1" d="M590,510.5c1.3,21.9,2.6,43.9,3.9,65.8c16.3-19.8,32.8-38.7,49.5-56.3c-0.2-21.2-0.5-42.3-0.7-63.5
		C625,473.2,607.4,491.4,590,510.5z"/>
	<path class="st0" d="M696.2,411c-18,13.3-35.8,28.7-53.5,45.4c0.2,21.2,0.5,42.3,0.7,63.5c16.7-17.6,33.6-33.8,50.7-48.2
		C694.8,451.5,695.5,431.3,696.2,411z"/>
	<path class="st1" d="M696.2,411c-0.7,20.3-1.4,40.5-2.1,60.8c17.1-14.4,34.5-26.8,52-37c1.5-19.1,3-38.2,4.5-57.4
		C732.4,386.3,714.2,397.7,696.2,411z"/>
	<path class="st0" d="M746.1,434.8c17.6-10.1,35.3-17.9,53.3-22.8c2.1-17.6,4.3-35.3,6.4-52.9c-18.6,3.2-37,9.5-55.2,18.3
		C749.1,396.6,747.6,415.7,746.1,434.8z"/>
	<path class="st1" d="M854,406.6c2.7-15.8,5.3-31.5,8-47.3c-18.8-3.5-37.5-3.3-56.1-0.1c-2.1,17.6-4.3,35.3-6.4,52.9
		C817.4,407.2,835.6,405.2,854,406.6z"/>
	<path class="st0" d="M854,406.6c18.4,1.4,37,6.1,55.8,14.7c3-13.4,6.1-26.8,9.1-40.1c-19.1-11.3-38.1-18.4-56.9-21.9
		C859.3,375,856.6,390.8,854,406.6z"/>
	<path class="st1" d="M909.8,421.3c7.1,3.3,14.3,7.1,21.4,11.5V389c-4.1-2.8-8.2-5.4-12.3-7.9C915.9,394.5,912.8,407.9,909.8,421.3z
		"/>
	<path class="st0" d="M900.7,461.5c10.1,3.2,20.3,7.6,30.5,13v-41.7c-7.2-4.4-14.3-8.2-21.4-11.5
		C906.8,434.7,903.7,448.1,900.7,461.5z"/>
	<path class="st1" d="M846,453.9c18-0.7,36.2,1.6,54.7,7.6c3-13.4,6.1-26.8,9.1-40.1c-18.8-8.6-37.4-13.4-55.8-14.7
		C851.3,422.3,848.7,438.1,846,453.9z"/>
	<path class="st0" d="M799.4,412.1c-2.1,17.6-4.3,35.3-6.4,52.9c17.4-6.5,35.1-10.4,53-11.2c2.7-15.8,5.3-31.5,8-47.3
		C835.6,405.2,817.4,407.2,799.4,412.1z"/>
	<path class="st1" d="M746.1,434.8c-1.5,19.1-3,38.2-4.5,57.4c16.8-11.4,33.9-20.6,51.3-27.2c2.1-17.6,4.3-35.3,6.4-52.9
		C781.5,417,763.7,424.7,746.1,434.8z"/>
	<path class="st0" d="M746.1,434.8c-17.5,10.1-34.9,22.6-52,37c-0.7,20.3-1.4,40.5-2.1,60.8c16.3-15.4,32.8-29,49.6-40.4
		C743.2,473.1,744.7,454,746.1,434.8z"/>
	<path class="st1" d="M643.4,520c0.2,21.2,0.5,42.3,0.7,63.5c15.7-18.4,31.7-35.5,48-50.9c0.7-20.3,1.4-40.5,2.1-60.8
		C677,486.2,660.1,502.4,643.4,520z"/>
	<path class="st0" d="M643.4,520c-16.7,17.6-33.2,36.5-49.5,56.3c0.7,11.1,1.3,22.2,2,33.3h26.7c7.1-9,14.3-17.7,21.5-26.1
		C643.8,562.3,643.6,541.1,643.4,520z"/>
	<path class="st1" d="M567.2,609.6h28.6c-0.7-11.1-1.3-22.2-2-33.3C585,587.2,576.1,598.3,567.2,609.6z"/>
	<path class="st1" d="M622.6,609.6h21.8c-0.1-8.7-0.2-17.4-0.3-26.1C636.8,591.9,629.7,600.7,622.6,609.6z"/>
	<path class="st0" d="M689.9,593.4c0.7-20.3,1.4-40.5,2.1-60.8c-16.3,15.4-32.2,32.5-48,50.9c0.1,8.7,0.2,17.4,0.3,26.1h30.9
		C680.1,604.1,685,598.6,689.9,593.4z"/>
	<path class="st1" d="M692,532.6c-0.7,20.3-1.4,40.5-2.1,60.8c15.4-16.4,31.2-31.1,47.3-43.8c1.5-19.1,3-38.2,4.5-57.4
		C724.8,503.6,708.3,517.2,692,532.6z"/>
	<path class="st0" d="M793,465c-17.4,6.5-34.5,15.8-51.3,27.2c-1.5,19.1-3,38.2-4.5,57.4c16.1-12.7,32.6-23.4,49.4-31.6
		C788.7,500.3,790.8,482.7,793,465z"/>
	<path class="st1" d="M786.5,518c16.8-8.2,34-13.9,51.5-16.8c2.7-15.8,5.3-31.5,8-47.3c-18,0.7-35.6,4.6-53,11.2
		C790.8,482.7,788.7,500.3,786.5,518z"/>
	<path class="st0" d="M846,453.9c-2.7,15.8-5.3,31.5-8,47.3c17.5-2.9,35.4-2.9,53.6,0.4c3-13.4,6.1-26.8,9.1-40.1
		C882.2,455.5,864,453.1,846,453.9z"/>
	<path class="st1" d="M891.6,501.6c13,2.4,26.2,6.4,39.6,12.3v-39.4c-10.3-5.5-20.4-9.8-30.5-13
		C897.7,474.8,894.6,488.2,891.6,501.6z"/>
	<path class="st0" d="M882.5,541.7c15.9,0.6,32.1,3.5,48.7,9.1v-36.9c-13.4-5.9-26.6-9.9-39.6-12.3
		C888.6,515,885.6,528.4,882.5,541.7z"/>
	<path class="st1" d="M838,501.2c-2.7,15.8-5.3,31.5-8,47.3c17.1-5,34.6-7.3,52.5-6.7c3-13.4,6.1-26.8,9.1-40.1
		C873.4,498.3,855.5,498.3,838,501.2z"/>
	<path class="st0" d="M786.5,518c-2.1,17.6-4.3,35.3-6.4,52.9c16.2-9.9,32.9-17.5,50-22.5c2.7-15.8,5.3-31.5,8-47.3
		C820.5,504,803.3,509.8,786.5,518z"/>
	<path class="st1" d="M737.2,549.5c-1.5,19.1-3,38.2-4.5,57.4c15.4-14,31.2-26.1,47.4-36c2.1-17.6,4.3-35.3,6.4-52.9
		C769.7,526.2,753.3,536.8,737.2,549.5z"/>
	<path class="st0" d="M737.2,549.5c-16.1,12.7-31.9,27.5-47.3,43.8c-0.2,5.4-0.4,10.8-0.6,16.2h40.4c1-0.9,2-1.8,3-2.7
		C734.2,587.8,735.7,568.7,737.2,549.5z"/>
	<path class="st1" d="M675.2,609.6h14.1c0.2-5.4,0.4-10.8,0.6-16.2C685,598.6,680.1,604.1,675.2,609.6z"/>
	<path class="st1" d="M729.7,609.6h2.8c0.1-0.9,0.1-1.8,0.2-2.7C731.7,607.8,730.7,608.7,729.7,609.6z"/>
	<path class="st0" d="M732.7,606.9c-0.1,0.9-0.1,1.8-0.2,2.7h42.9c1.6-12.9,3.1-25.8,4.7-38.7C763.9,580.8,748.1,592.9,732.7,606.9z
		"/>
	<path class="st1" d="M830,548.4c-17.1,5-33.7,12.6-50,22.5c-1.6,12.9-3.1,25.8-4.7,38.7H795c8.9-5.3,17.9-10,27.1-13.9
		C824.7,580,827.4,564.2,830,548.4z"/>
	<path class="st0" d="M830,548.4c-2.7,15.8-5.3,31.5-8,47.3c16.6-7.1,33.8-11.8,51.4-13.8c3-13.4,6.1-26.8,9.1-40.1
		C864.6,541.1,847.1,543.5,830,548.4z"/>
	<path class="st1" d="M873.4,581.9c17.6-2,35.7-1.3,54.3,2.4c1.2-3.7,2.3-7.4,3.5-11v-22.5c-16.6-5.6-32.8-8.5-48.7-9.1
		C879.5,555.1,876.5,568.5,873.4,581.9z"/>
	<path class="st0" d="M931.2,585v-11.8c-1.2,3.7-2.3,7.4-3.5,11C928.9,584.5,930.1,584.8,931.2,585z"/>
	<path class="st1" d="M919.8,609.6h11.4V585c-1.2-0.3-2.3-0.5-3.5-0.7C925.1,592.7,922.5,601.2,919.8,609.6z"/>
	<path class="st0" d="M873.4,581.9c-2.1,9.2-4.2,18.5-6.3,27.7h52.7c2.6-8.4,5.3-16.9,7.9-25.3C909.2,580.6,891.1,579.9,873.4,581.9
		z"/>
	<path class="st1" d="M822.1,595.7c-0.8,4.6-1.6,9.3-2.3,13.9h47.4c2.1-9.2,4.2-18.5,6.3-27.7C855.8,583.9,838.7,588.6,822.1,595.7z
		"/>
	<path class="st0" d="M795,609.6h24.8c0.8-4.6,1.6-9.3,2.3-13.9C812.9,599.7,803.8,604.3,795,609.6z"/>
</g>
</svg>
