<?xml version="1.0" encoding="utf-8"?>
<!-- Generator: Adobe Illustrator 26.1.0, SVG Export Plug-In . SVG Version: 6.00 Build 0)  -->
<svg version="1.1" id="Layer_1" xmlns="http://www.w3.org/2000/svg" xmlns:xlink="http://www.w3.org/1999/xlink" x="0px" y="0px"
	 viewBox="0 0 134.8 36.9" style="enable-background:new 0 0 134.8 36.9;" xml:space="preserve">
<style type="text/css">
	.st0{fill:#4E4192;}
	.st1{fill:#FFFFFF;}
	.st2{fill:#162139;}
</style>
<g>
	<g>
		<g>
			<rect x="99" y="1.4" class="st0" width="34.4" height="34.1"/>
			<path class="st1" d="M134.8,36.9H97.6V0h37.3V36.9z M100.4,34.1H132V2.8h-31.6V34.1z"/>
		</g>
		<g>
			<path class="st2" d="M125.5,29c-0.4,0-0.7-0.1-1-0.4l-18.6-18.4c-0.6-0.5-0.6-1.4,0-2c0.6-0.5,1.4-0.5,2,0l18.6,18.4
				c0.6,0.5,0.6,1.4,0,2C126.2,28.9,125.8,29,125.5,29z"/>
			<path class="st2" d="M106.9,29c-0.4,0-0.7-0.1-1-0.4c-0.6-0.5-0.6-1.4,0-2l18.6-18.4c0.6-0.5,1.4-0.5,2,0c0.6,0.5,0.6,1.4,0,2
				l-18.6,18.4C107.6,28.9,107.3,29,106.9,29z"/>
		</g>
	</g>
	<g>
		<g>
			<rect x="50.9" y="1.4" class="st0" width="34.4" height="34.1"/>
			<path class="st1" d="M86.8,36.9H49.5V0h37.3V36.9z M52.4,34.1H84V2.8H52.4V34.1z"/>
		</g>
	</g>
	<g>
		<g>
			<rect x="60" y="10.3" class="st0" width="16.4" height="16.2"/>
			<path class="st1" d="M77.8,27.9H58.6v-19h19.2V27.9z M61.4,25.2h13.6V11.7H61.4V25.2z"/>
		</g>
	</g>
	<g>
		<g>
			<rect x="1.4" y="1.4" class="st0" width="34.4" height="34.1"/>
			<path class="st1" d="M37.3,36.9H0V0h37.3V36.9z M2.8,34.1h31.6V2.8H2.8V34.1z"/>
		</g>
		<path class="st2" d="M29.1,27.8h-21c-0.8,0-1.4-0.6-1.4-1.4c0-0.8,0.6-1.4,1.4-1.4h21c0.8,0,1.4,0.6,1.4,1.4
			C30.6,27.2,29.9,27.8,29.1,27.8z"/>
	</g>
</g>
</svg>
