<?xml version="1.0" encoding="utf-8"?>
<!-- Generator: Adobe Illustrator 26.1.0, SVG Export Plug-In . SVG Version: 6.00 Build 0)  -->
<svg version="1.1" id="Layer_1" xmlns="http://www.w3.org/2000/svg" xmlns:xlink="http://www.w3.org/1999/xlink" x="0px" y="0px"
	 viewBox="0 0 114 29.4" style="enable-background:new 0 0 114 29.4;" xml:space="preserve">
<style type="text/css">
	.st0{fill:url(#SVGID_1_);}
	.st1{fill:#162139;}
	.st2{fill:url(#SVGID_00000071521590980315850540000017687390110905460648_);}
	.st3{fill:url(#SVGID_00000100343380554076414530000012748464251711102116_);}
</style>
<g>
	<g>
		<linearGradient id="SVGID_1_" gradientUnits="userSpaceOnUse" x1="99.098" y1="29.4327" x2="99.098" y2="-9.094947e-13">
			<stop  offset="0.3631" style="stop-color:#A566A6"/>
			<stop  offset="0.6592" style="stop-color:#E7ABCD"/>
			<stop  offset="0.6732" style="stop-color:#DC9EC6"/>
		</linearGradient>
		<rect x="84.2" class="st0" width="29.7" height="29.4"/>
		<g>
			<path class="st1" d="M107.1,23.8c-0.3,0-0.6-0.1-0.8-0.3l-16-15.9c-0.5-0.5-0.5-1.2,0-1.7c0.5-0.5,1.2-0.5,1.7,0l16,15.9
				c0.5,0.5,0.5,1.2,0,1.7C107.7,23.7,107.4,23.8,107.1,23.8z"/>
			<path class="st1" d="M91.1,23.8c-0.3,0-0.6-0.1-0.8-0.3c-0.5-0.5-0.5-1.2,0-1.7l16-15.9c0.5-0.5,1.2-0.5,1.7,0
				c0.5,0.5,0.5,1.2,0,1.7l-16,15.9C91.7,23.7,91.4,23.8,91.1,23.8z"/>
		</g>
	</g>
	<g>
		
			<linearGradient id="SVGID_00000174562214358748905800000010915745705814863536_" gradientUnits="userSpaceOnUse" x1="57.6333" y1="29.4327" x2="57.6333" y2="-9.094947e-13">
			<stop  offset="0.3631" style="stop-color:#A566A6"/>
			<stop  offset="0.6592" style="stop-color:#E7ABCD"/>
			<stop  offset="0.6732" style="stop-color:#DC9EC6"/>
		</linearGradient>
		<rect x="42.8" style="fill:url(#SVGID_00000174562214358748905800000010915745705814863536_);" width="29.7" height="29.4"/>
	</g>
	<g>
		<g>
			<path class="st1" d="M64.7,22.9H50.6c-0.7,0-1.2-0.5-1.2-1.2v-14c0-0.7,0.5-1.2,1.2-1.2h14.1c0.7,0,1.2,0.5,1.2,1.2v14
				C65.9,22.4,65.4,22.9,64.7,22.9z M51.8,20.5h11.8V8.9H51.8V20.5z"/>
		</g>
	</g>
	<g>
		
			<linearGradient id="SVGID_00000129916722484432509200000011129362473802880681_" gradientUnits="userSpaceOnUse" x1="14.8647" y1="29.4327" x2="14.8647" y2="-9.094947e-13">
			<stop  offset="0.3631" style="stop-color:#A566A6"/>
			<stop  offset="0.6592" style="stop-color:#E7ABCD"/>
			<stop  offset="0.6732" style="stop-color:#DC9EC6"/>
		</linearGradient>
		<rect style="fill:url(#SVGID_00000129916722484432509200000011129362473802880681_);" width="29.7" height="29.4"/>
		<path class="st1" d="M23.9,22.8H5.8c-0.7,0-1.2-0.5-1.2-1.2s0.5-1.2,1.2-1.2h18.2c0.7,0,1.2,0.5,1.2,1.2S24.6,22.8,23.9,22.8z"/>
	</g>
</g>
</svg>
