<?xml version="1.0" encoding="utf-8"?>
<!-- Generator: Adobe Illustrator 26.1.0, SVG Export Plug-In . SVG Version: 6.00 Build 0)  -->
<svg version="1.1" id="Layer_1" xmlns="http://www.w3.org/2000/svg" xmlns:xlink="http://www.w3.org/1999/xlink" x="0px" y="0px"
	 viewBox="0 0 143.7 142.3" style="enable-background:new 0 0 143.7 142.3;" xml:space="preserve">
<style type="text/css">
	.st0{fill:url(#SVGID_1_);}
	.st1{fill:#162139;}
</style>
<g>
	<linearGradient id="SVGID_1_" gradientUnits="userSpaceOnUse" x1="71.8711" y1="141.402" x2="71.8711" y2="0.906">
		<stop  offset="0.3631" style="stop-color:#A566A6"/>
		<stop  offset="0.7318" style="stop-color:#E7ABCD"/>
	</linearGradient>
	<ellipse class="st0" cx="71.9" cy="71.2" rx="71" ry="70.2"/>
	<path class="st1" d="M71.9,142.3C32.2,142.3,0,110.4,0,71.2S32.2,0,71.9,0c39.6,0,71.9,31.9,71.9,71.2S111.5,142.3,71.9,142.3z
		 M71.9,1.8c-38.6,0-70,31.1-70,69.3c0,38.2,31.4,69.3,70,69.3s70-31.1,70-69.3C141.9,32.9,110.5,1.8,71.9,1.8z"/>
	<path class="st1" d="M71.9,135.3c-35.7,0-64.8-28.8-64.8-64.2C7.1,35.8,36.1,7,71.9,7s64.8,28.8,64.8,64.2
		C136.7,106.5,107.6,135.3,71.9,135.3z M71.9,8.8c-34.7,0-63,28-63,62.4c0,34.4,28.3,62.4,63,62.4c34.7,0,63-28,63-62.4
		C134.9,36.8,106.6,8.8,71.9,8.8z"/>
	<g>
		<path class="st1" d="M60.6,39.2L55,44.4l4.2-10.8c-1.4-3.8-3.2-6.1-5.2-6.1c-4.2,0-7.7,10.4-7.7,23.2s3.4,23.2,7.7,23.2
			c4.2,0,7.7-10.4,7.7-23.2C61.7,46.6,61.3,42.6,60.6,39.2z"/>
		<path class="st1" d="M96.4,39.2l-5.4,5l4-10.3c-1.4-3.9-3.2-6.3-5.3-6.3c-4.2,0-7.7,10.4-7.7,23.2s3.4,23.2,7.7,23.2
			c4.2,0,7.7-10.4,7.7-23.2C97.4,46.6,97.1,42.6,96.4,39.2z"/>
	</g>
	<path class="st1" d="M72.5,118.9c-17.1,0-32.3-14.2-37-34.7c-0.1-0.5,0.2-1,0.7-1.1c0.5-0.1,1,0.2,1.1,0.7
		c4.5,19.7,19.1,33.3,35.4,33.3c15.3-0.1,29-12.3,34.1-30.3c0.1-0.5,0.6-0.8,1.1-0.6c0.5,0.1,0.8,0.6,0.6,1.1
		c-5.4,18.8-19.8,31.5-35.9,31.6C72.6,118.9,72.6,118.9,72.5,118.9z"/>
</g>
</svg>
