<?xml version="1.0" encoding="utf-8"?>
<!-- Generator: Adobe Illustrator 26.1.0, SVG Export Plug-In . SVG Version: 6.00 Build 0)  -->
<svg version="1.1" id="Layer_1" xmlns="http://www.w3.org/2000/svg" xmlns:xlink="http://www.w3.org/1999/xlink" x="0px" y="0px"
	 viewBox="0 0 28.6 28.3" style="enable-background:new 0 0 28.6 28.3;" xml:space="preserve">
<style type="text/css">
	.st0{fill:url(#SVGID_1_);}
</style>
<g>
	<linearGradient id="SVGID_1_" gradientUnits="userSpaceOnUse" x1="14.2947" y1="28.3042" x2="14.2947" y2="-9.094947e-13">
		<stop  offset="0" style="stop-color:#4182C3"/>
		<stop  offset="1" style="stop-color:#5BBBA9"/>
	</linearGradient>
	<path class="st0" d="M8,15.9c2.3,0.9,3.6,2.2,4.5,4.5c0.8,1.9,1.3,4.4,1.8,7.9c0.5-3.5,1-6,1.8-7.9c0.9-2.2,2.3-3.6,4.5-4.5
		c1.9-0.8,4.5-1.3,8-1.8c-3.5-0.5-6.1-1-8-1.8c-2.3-0.9-3.6-2.2-4.5-4.5C15.3,6,14.8,3.5,14.3,0c-0.5,3.5-1,6-1.8,7.9
		c-0.9,2.2-2.3,3.6-4.5,4.5c-1.9,0.8-4.5,1.3-8,1.8C3.5,14.7,6.1,15.2,8,15.9z"/>
</g>
</svg>
