<?xml version="1.0" encoding="utf-8"?>
<!-- Generator: Adobe Illustrator 26.1.0, SVG Export Plug-In . SVG Version: 6.00 Build 0)  -->
<svg version="1.1" id="Layer_1" xmlns="http://www.w3.org/2000/svg" xmlns:xlink="http://www.w3.org/1999/xlink" x="0px" y="0px"
	 viewBox="0 0 37.8 37.4" style="enable-background:new 0 0 37.8 37.4;" xml:space="preserve">
<style type="text/css">
	.st0{fill:#4E4192;}
	.st1{fill:#FFFFFF;}
</style>
<g>
	<g>
		<path class="st0" d="M12.6,20.5c2.3,0.9,3.6,2.2,4.5,4.5c0.8,1.9,1.3,4.4,1.8,7.9c0.5-3.5,1-6,1.8-7.9c0.9-2.2,2.3-3.6,4.5-4.5
			c1.9-0.8,4.5-1.3,8-1.8c-3.5-0.5-6.1-1-8-1.8c-2.3-0.9-3.6-2.2-4.5-4.5c-0.8-1.9-1.3-4.4-1.8-7.9c-0.5,3.5-1,6-1.8,7.9
			c-0.9,2.2-2.3,3.6-4.5,4.5c-1.9,0.8-4.5,1.3-8,1.8C8.1,19.2,10.7,19.7,12.6,20.5z"/>
		<path class="st1" d="M18.9,37.4L18.2,33c-0.5-3.3-1-5.9-1.7-7.7c-0.9-2.1-2.1-3.3-4.2-4.1c-1.9-0.8-4.5-1.2-7.8-1.7L0,18.7
			l4.5-0.7c3.3-0.5,5.9-1,7.8-1.7c2.1-0.8,3.3-2,4.2-4.1c0.8-1.9,1.3-4.4,1.7-7.7L18.9,0l0.7,4.5c0.5,3.3,1,5.9,1.7,7.7
			c0.9,2.1,2.1,3.3,4.2,4.1c1.9,0.8,4.5,1.2,7.8,1.7l4.5,0.7l-4.5,0.7c-3.3,0.5-5.9,1-7.8,1.7c-2.1,0.8-3.3,2-4.2,4.1
			c-0.8,1.9-1.3,4.4-1.7,7.7L18.9,37.4z M8.7,18.7c1.6,0.3,3,0.7,4.2,1.2l0,0c2.4,1,3.9,2.4,4.9,4.9c0.5,1.1,0.8,2.5,1.2,4.1
			c0.3-1.6,0.7-3,1.2-4.1c1-2.4,2.5-3.9,4.9-4.9c1.2-0.5,2.5-0.8,4.2-1.2c-1.6-0.3-3-0.7-4.2-1.2c-2.4-1-3.9-2.4-4.9-4.9
			c-0.5-1.1-0.8-2.5-1.2-4.1c-0.3,1.6-0.7,3-1.2,4.1c-1,2.4-2.5,3.9-4.9,4.9C11.7,18,10.3,18.4,8.7,18.7z"/>
	</g>
</g>
</svg>
