<?xml version="1.0" encoding="utf-8"?>
<!-- Generator: Adobe Illustrator 26.1.0, SVG Export Plug-In . SVG Version: 6.00 Build 0)  -->
<svg version="1.1" id="Layer_1" xmlns="http://www.w3.org/2000/svg" xmlns:xlink="http://www.w3.org/1999/xlink" x="0px" y="0px"
	 viewBox="0 0 206.5 200.1" style="enable-background:new 0 0 206.5 200.1;" xml:space="preserve">
<style type="text/css">
	.st0{fill:url(#SVGID_1_);}
	.st1{fill:#10203A;}
</style>
<g>
	<g>
		<linearGradient id="SVGID_1_" gradientUnits="userSpaceOnUse" x1="103.2678" y1="200.1027" x2="103.2678" y2="-9.094947e-13">
			<stop  offset="0" style="stop-color:#0490FF"/>
			<stop  offset="1" style="stop-color:#00E2BC"/>
		</linearGradient>
		<path class="st0" d="M0.5,90.8C-3.2,72.6,14,71.9,22.2,62c8.9-10.9,5.2-34.1,18.6-40.4c10.2-4.8,21.7,5.2,32.8,3.8
			c8.9-1.1,15.1-8.9,21.2-15.3c6.1-6.5,15.2-12.5,23.4-9.1c8,3.3,10.4,13.7,17.5,18.7c7.4,5.2,17.5,3.3,26.4,1.7s19.7-1.9,25.4,5.1
			c11.3,13.9-10.5,37.5,1.1,51.2c3,3.6,7.7,5.3,11.3,8.4c5.2,4.4,8.4,13.6,5.7,20.2c-2.7,6.5-7.3,5.2-11.9,9
			c-13.8,11.6,7.4,21.7,0.4,34.6c-3.6,6.7-14,5.9-19.8,10.9c-7.3,6.5-4,19-9.5,27.1c-4.4,6.4-14.4,8-20.5,3.3
			c-3-2.3-5.1-5.7-8.5-7.3c-6.2-2.9-13.2,1.6-18.1,6.2c-4.9,4.7-10.3,10.2-17.1,10c-7.7-0.3-13.5-8-21.2-8.2
			c-7.9-0.2-14.4,7.7-22.3,7.3c-7.9-0.4-12.8-8.6-15-16.1c-2.2-7.5-3.7-16-9.9-20.8c-5-3.9-12.2-4.6-16.4-9.3
			c-10.2-11.3,6.5-30.3-0.4-43.8C11.7,102.2,2.1,98.6,0.5,90.8z"/>
		<path class="st1" d="M101.1,193.8L101.1,193.8c-0.1,0-0.3,0-0.4,0c-3.5-0.1-6.7-2-9.8-3.8c-3.3-2-6.5-3.8-10.2-3.9l-0.3,0
			c-3.7,0-6.9,1.7-10.2,3.5c-3.3,1.7-6.7,3.5-10.4,3.4c-8.8-0.4-12.8-11.5-13.8-14.9c-0.3-1.1-0.6-2.2-0.9-3.3
			c-1.6-5.9-3.5-12.5-8.5-16.4c-2.1-1.6-4.6-2.7-7.1-3.7c-3-1.3-6.1-2.6-8.3-4.9c-5-5.5-3-12.9-0.9-20.7c1.9-7.3,3.8-14.2,0.6-20.3
			c-1.5-3-4.2-5.3-6.7-7.6c-3.2-2.8-6.4-5.7-7.2-9.8C4.7,80,11.1,76,17.9,71.8c3.3-2.1,6.8-4.2,9.3-7.3c3.6-4.4,5.1-11,6.5-17.3
			c1.9-8.5,3.8-17.2,10.9-20.6c1.7-0.8,3.5-1.2,5.6-1.2c3.6,0,7.2,1.2,11.1,2.4c3.9,1.3,8,2.6,12,2.6c0.7,0,1.4,0,2.1-0.1
			c7.5-0.9,13.2-7,18.2-12.4c0.7-0.7,1.3-1.4,2-2.1c5.6-6,11.9-9.4,17.1-9.4c1.6,0,3.1,0.3,4.6,0.9c4.1,1.7,6.7,5.5,9.2,9.2
			c2.1,3,4.2,6.2,7.2,8.3c3.1,2.2,7,3.3,11.9,3.3c4.2,0,8.5-0.8,12.7-1.5l0.6-0.1c3.4-0.6,6.3-0.9,9-0.9c6.8,0,11.5,1.8,14.6,5.5
			c5.2,6.4,2.8,15.2,0.4,23.8c-2.5,9.2-4.9,17.8,0.7,24.4c1.7,2,3.9,3.4,6.2,4.9c1.6,1,3.1,1.9,4.4,3c4.5,3.8,7.8,12.4,5.3,18.6
			c-1.5,3.7-3.7,4.6-6.2,5.7c-1.6,0.7-3.2,1.3-4.8,2.7c-7.3,6.2-4.5,11.8-1.6,17.7c2.3,4.7,4.8,9.6,1.9,14.9c-1.9,3.5-5.7,4.7-9.8,6
			c-3.3,1.1-6.3,2-8.7,4.2c-3.9,3.4-4.6,8.4-5.4,13.7c-0.6,4.3-1.3,8.4-3.6,11.8c-2.3,3.4-6.6,5.5-11.1,5.5c-2.9,0-5.6-0.9-7.7-2.5
			c-1.1-0.8-2-1.8-3-2.8c-1.5-1.5-3-3.1-5-4.1c-1.3-0.6-2.6-0.9-4.1-0.9c-5.1,0-10.1,3.7-13.4,6.8l-0.8,0.8
			C111.4,189.5,106.8,193.8,101.1,193.8z M80.5,181.4c0.1,0,0.3,0,0.4,0c4.9,0.1,8.9,2.5,12.5,4.6c2.7,1.6,5.2,3.1,7.5,3.1l0.2,0
			c3.8,0,7.6-3.7,11.3-7.2l0.8-0.8c3.9-3.7,10-8.1,16.7-8.1c2.1,0,4.2,0.4,6.1,1.3c2.8,1.3,4.8,3.4,6.4,5.1c0.9,0.9,1.7,1.7,2.5,2.3
			c1.3,1,3,1.5,4.8,1.5c3,0,5.7-1.3,7.2-3.4c1.7-2.5,2.2-6,2.8-9.8c0.8-5.6,1.8-12,7-16.6c3.1-2.8,7-4,10.4-5.1
			c3.3-1.1,6.1-2,7.1-3.8c1.6-3,0.4-5.9-1.9-10.6c-2.9-5.9-7.4-14.9,2.8-23.4c2.2-1.8,4.3-2.7,6-3.5c2.2-0.9,2.9-1.2,3.7-3.1
			c1.7-4.1-0.8-10.6-3.9-13.2c-1.1-0.9-2.4-1.8-3.8-2.6c-2.4-1.5-5.1-3.2-7.3-5.8c-7.2-8.5-4.2-19.2-1.6-28.7
			c2.1-7.7,4.2-15.1,0.5-19.5c-2.1-2.5-5.6-3.8-10.9-3.8c-2.4,0-5.1,0.3-8.2,0.8l-0.6,0.1c-4.4,0.8-8.9,1.6-13.5,1.6
			c-5.9,0-10.7-1.4-14.6-4.2c-3.7-2.6-6.1-6.1-8.4-9.5c-2.2-3.3-4.3-6.4-7.1-7.5c-0.9-0.4-1.8-0.5-2.7-0.5c-3.8,0-8.9,3-13.6,7.9
			c-0.6,0.7-1.3,1.4-1.9,2c-5.6,6-11.8,12.8-21.1,13.9c-0.9,0.1-1.8,0.2-2.7,0.2c-4.8,0-9.2-1.4-13.4-2.8c-3.5-1.1-6.8-2.2-9.7-2.2
			c-1.3,0-2.5,0.2-3.5,0.7c-5,2.3-6.6,9.6-8.3,17.3c-1.5,6.9-3.1,14-7.4,19.3c-3,3.7-6.8,6-10.5,8.3C13.7,80,10,82.3,11.7,90.3
			c0.5,2.5,3.1,4.8,5.8,7.2c2.9,2.5,5.8,5.2,7.7,8.9c4,7.7,1.7,16.2-0.2,23.7c-2.1,7.9-3.2,13-0.1,16.4c1.5,1.6,4,2.7,6.6,3.8
			c2.7,1.1,5.6,2.3,8.2,4.4c6.2,4.9,8.3,12.3,10.1,18.9c0.3,1.1,0.6,2.2,0.9,3.2c0.6,1.9,3.7,11.2,9.5,11.5c0.1,0,0.2,0,0.3,0
			c2.3,0,4.9-1.4,7.6-2.8C71.6,183.5,75.7,181.4,80.5,181.4z"/>
		<path class="st1" d="M137.1,79.7c-2.2,7.3-4.2,13.9-5.1,18.7c-1.1,4.8-1.1,7.7-3.7,7.7c-2.2,0-6.6-3-8.7-7.7
			c-2.3-4.8-2.3-11.4-0.1-18.7c2.2-7.3,4.2-13.9,5.1-18.7c1.1-4.8,1.1-7.7,3.7-7.7c2.2,0,6.6,3,8.7,7.7
			C139.3,65.8,139.3,72.4,137.1,79.7z"/>
		<path class="st1" d="M95.3,79.7c-2.2,7.3-4.2,13.9-5.1,18.7c-1.1,4.8-1.1,7.7-3.7,7.7c-2.2,0-6.6-3-8.7-7.7
			c-2.3-4.8-2.3-11.4-0.1-18.7c2.2-7.3,4.2-13.9,5.1-18.7c1.1-4.8,1.1-7.7,3.7-7.7c2.2,0,6.6,3,8.7,7.7
			C97.5,65.8,97.5,72.4,95.3,79.7z"/>
	</g>
	<path class="st1" d="M89.5,162.8c-2.8,0-5.7-0.9-8-2.6c-3.9-2.8-6.3-7.8-6.2-12.9c0-0.4,0-0.8,0.1-1.3c0.1-1.2,0.1-2.3-0.2-3
		c-0.7-1.5-3.5-1.8-5.7-1.4c-0.6,0.1-1.2,0.2-1.8,0.4c-2.6,0.6-5.6,1.2-8.6,0.1c-5.4-2-7.4-8.4-6.9-13.8c0.2-1.7,0.5-3.3,0.7-4.9
		c0.5-2.8,1-5.5,0.6-8c-0.3-2-1.7-4.1-3.4-5c-1-0.6-1.9-0.7-2.8-0.3c-1.2,0.5-2.6-0.1-3.1-1.3c-0.5-1.2,0.1-2.6,1.4-3.1
		c2.2-0.9,4.7-0.6,6.9,0.6c2.9,1.7,5.2,5,5.7,8.4c0.5,3.3-0.1,6.5-0.6,9.5c-0.3,1.5-0.6,3-0.7,4.4c-0.3,3.6,0.7,7.9,3.8,9
		c1.7,0.6,3.8,0.2,6-0.3c0.7-0.1,1.3-0.3,2-0.4c4-0.7,8.9,0,10.8,4c0.9,1.8,0.8,3.7,0.7,5.3c0,0.4,0,0.7,0,1.1
		c-0.1,3.6,1.6,7.1,4.3,9c2.7,2,6.7,2.2,9.3,0.6c1.8-1.1,3.1-3,4.6-4.9c2-2.7,4.3-5.8,8-7c5.8-2,11.4,1.6,15.8,4.5l0.2,0.1
		c2.3,1.5,8,4.6,11.3,2.1c2-1.5,2.6-4.6,3.3-7.8c0.9-4.3,1.9-9.2,6.8-11c2.1-0.7,4.2-0.5,6-0.3c1.3,0.1,2.5,0.3,3.5,0.1
		c1.6-0.3,2.6-2,2.9-3.3c0.3-1.3,0.2-3.2-1.2-4.2c-1-0.8-1.3-2.3-0.5-3.3c0.8-1,2.3-1.2,3.3-0.5c2.6,2,3.7,5.4,2.9,9
		c-0.8,3.6-3.3,6.2-6.5,6.9c-1.8,0.4-3.5,0.2-5,0c-1.5-0.2-2.8-0.3-3.9,0.1c-2.2,0.8-2.9,3.3-3.8,7.5c-0.8,3.8-1.7,8-5,10.6
		c-4.1,3.1-10.1,2.4-16.8-1.9l-0.2-0.1c-3.8-2.4-8.1-5.2-11.7-3.9c-2.3,0.8-3.9,3-5.7,5.3c-1.7,2.2-3.4,4.6-5.9,6.2
		C94.2,162.2,91.9,162.8,89.5,162.8z"/>
</g>
</svg>
